<?xml version="1.0" encoding="utf-8"?>
<!-- Generator: Adobe Illustrator 17.0.0, SVG Export Plug-In . SVG Version: 6.00 Build 0)  -->
<!DOCTYPE svg PUBLIC "-//W3C//DTD SVG 1.1//EN" "http://www.w3.org/Graphics/SVG/1.1/DTD/svg11.dtd">
<svg version="1.1" id="Layer_1" xmlns="http://www.w3.org/2000/svg" xmlns:xlink="http://www.w3.org/1999/xlink" x="0px" y="0px"
	 width="357.83px" height="355.542px" viewBox="0 0 357.83 355.542" enable-background="new 0 0 357.83 355.542"
	 xml:space="preserve">
<g>
	<g>
		<g>
			<path fill="#8DC971" d="M357.919,178.502c0,98.861-80.142,179.003-179.002,179.003S-0.087,277.364-0.087,178.502
				C-0.087,79.642,80.056-0.5,178.917-0.5C277.778-0.5,357.919,79.642,357.919,178.502"/>
		</g>
	</g>
	<rect x="257.559" y="65.654" fill="#FFFFFF" width="10.74" height="186.857"/>
	<g>
		<g>
			<path fill="#FFFFFF" d="M187.596,223.319c-16.665,0.091-32.931,4.831-29.921,18.837c10.201,38.328,24.627,51.792,22.049,59.703
				c-4.566,8.919-37.377,7.193-37.377,7.193c-10.055-56.542-12.628-68.399-12.628-68.399c-2.151-3.389-5.658-16.423-28.22-17.675
				c-22.562-1.25-38.491-17.231-38.491-38.49v-51.321c0-21.258,17.233-38.491,38.491-38.491h72.475l-0.085,0.13
				c21.119,0,34.535-2.65,49.301-10.223c14.765-7.571,19.307-18.929,19.307-18.929h9.844V252h-9.844c0,0-4.542-11.357-19.307-18.93
				c-11.074-5.679-21.39-8.589-34.765-9.689L187.596,223.319z"/>
		</g>
	</g>
</g>
</svg>
